<?xml version="1.0" encoding="UTF-8" standalone="no"?>
<!DOCTYPE svg PUBLIC "-//W3C//DTD SVG 1.1//EN" "http://www.w3.org/Graphics/SVG/1.1/DTD/svg11.dtd">
<svg width="100%" height="100%" viewBox="0 0 12 12" version="1.1" xmlns="http://www.w3.org/2000/svg" xmlns:xlink="http://www.w3.org/1999/xlink" xml:space="preserve" xmlns:serif="http://www.serif.com/" style="fill-rule:evenodd;clip-rule:evenodd;stroke-linejoin:round;stroke-miterlimit:2;">
    <path d="M2,10C1.725,10 1.49,9.902 1.294,9.707C1.098,9.511 1,9.275 1,9L1,3C1,2.725 1.098,2.49 1.294,2.294C1.49,2.098 1.725,2 2,2L4.588,2C4.721,2 4.848,2.025 4.969,2.075C5.09,2.125 5.196,2.196 5.288,2.288L6,3L10,3C10.275,3 10.511,3.098 10.707,3.294C10.903,3.49 11,3.725 11,4L11,9C11,9.275 10.902,9.511 10.707,9.707C10.511,9.903 10.275,10 10,10L2,10ZM2,9L10,9L10,4L5.588,4L4.588,3L2,3L2,9ZM2,9L2,3L2,9ZM7,7L7,7.5C7,7.642 7.048,7.761 7.144,7.856C7.24,7.952 7.359,8 7.5,8C7.641,8 7.76,7.952 7.856,7.856C7.953,7.76 8.001,7.642 8,7.5L8,7L8.5,7C8.642,7 8.761,6.952 8.857,6.856C8.953,6.76 9,6.641 9,6.5C9,6.359 8.952,6.24 8.856,6.144C8.76,6.048 8.642,6 8.5,6L8,6L8,5.5C8,5.358 7.952,5.24 7.856,5.144C7.76,5.048 7.641,5 7.5,5C7.359,5 7.24,5.048 7.144,5.144C7.048,5.24 7,5.359 7,5.5L7,6L6.5,6C6.358,6 6.24,6.048 6.144,6.144C6.048,6.24 6,6.359 6,6.5C6,6.641 6.048,6.76 6.144,6.856C6.24,6.953 6.359,7.001 6.5,7L7,7Z" style="fill-rule:nonzero;"/>
</svg>
