<?xml version="1.0" encoding="UTF-8" standalone="no"?>
<!DOCTYPE svg PUBLIC "-//W3C//DTD SVG 1.1//EN" "http://www.w3.org/Graphics/SVG/1.1/DTD/svg11.dtd">
<svg width="100%" height="100%" viewBox="0 0 12 12" version="1.1" xmlns="http://www.w3.org/2000/svg" xmlns:xlink="http://www.w3.org/1999/xlink" xml:space="preserve" xmlns:serif="http://www.serif.com/" style="fill-rule:evenodd;clip-rule:evenodd;stroke-linejoin:round;stroke-miterlimit:2;">
    <path d="M1.965,8.441L2.501,7.909C1.914,7.382 1.453,6.729 1.151,6C1.912,4.099 4.012,2.625 6,2.625C6.511,2.632 7.018,2.723 7.5,2.895L8.081,2.31C7.422,2.031 6.715,1.884 6,1.875C3.507,1.969 1.297,3.545 0.398,5.872C0.368,5.955 0.368,6.045 0.398,6.127C0.731,7.011 1.268,7.804 1.965,8.441" style="fill-rule:nonzero;"/>
    <path d="M4.5,5.899C4.554,5.159 5.148,4.565 5.887,4.511L6.566,3.829C6.379,3.78 6.187,3.755 5.993,3.755C4.759,3.755 3.743,4.77 3.743,6.005C3.743,6.198 3.768,6.391 3.818,6.577L4.5,5.899ZM11.603,5.873C11.173,4.753 10.424,3.783 9.45,3.082L11.25,1.279L10.721,0.75L0.75,10.721L1.279,11.25L3.191,9.337C4.044,9.838 5.012,10.109 6,10.125C8.493,10.031 10.703,8.455 11.602,6.128C11.632,6.045 11.632,5.955 11.602,5.872M7.5,6C7.495,6.819 6.819,7.491 6,7.491C5.737,7.491 5.478,7.422 5.25,7.29L7.29,5.25C7.425,5.477 7.497,5.736 7.5,6M6,9.375C5.213,9.361 4.441,9.158 3.75,8.783L4.703,7.83C5.079,8.091 5.527,8.231 5.985,8.231C7.219,8.231 8.235,7.216 8.235,5.981C8.235,5.523 8.095,5.075 7.834,4.699L8.91,3.623C9.77,4.213 10.443,5.038 10.849,6C10.087,7.901 7.988,9.375 6,9.375" style="fill-rule:nonzero;"/>
</svg>
